# xmcd
#
# Track frame offsets:
#	150
#	13918
#	32751
#	46076
#	63190
#	75723
#	91148
#	106283
#	122270
#	135997
#	153719
#	170756
#	192625
#	208767
#	230005
#
# Disc length: 3269 seconds
#
# Revision: 1
# Processed by: cddbd v1.5.2PL0 Copyright (c) Steve Scherf et al.
# Submitted via: FairStars CD Ripper 1.90
#
DISCID=c50cc30f
DTITLE=Tim McGraw - McGraw The Ultimate Collection Disc 1
DYEAR=2016
DGENRE=Country
TTITLE0=Indian Outlaw
TTITLE1=Don't Take The Girl
TTITLE2=Down On The Farm
TTITLE3=Not A Moment Too Soon
TTITLE4=Refried Dreams
TTITLE5=I Like It, I Love It
TTITLE6=Can't Be Really Gone
TTITLE7=All I Want Is A Life
TTITLE8=She Never Lets It Go To Her Heart
TTITLE9=Maybe We Should Just Sleep On It
TTITLE10=It's Your Love
TTITLE11=Everywhere
TTITLE12=Just To See You Smile
TTITLE13=One Of These Days
TTITLE14=Where The Green Grass Grows
EXTD=
EXTT0=
EXTT1=
EXTT2=
EXTT3=
EXTT4=
EXTT5=
EXTT6=
EXTT7=
EXTT8=
EXTT9=
EXTT10=
EXTT11=
EXTT12=
EXTT13=
EXTT14=
PLAYORDER=
